PathFileType	4	(X/Y/Z)	 New Session 106.trc
DataRate	CameraRate	NumFrames	NumMarkers	Units	OrigDataRate	OrigDataStartFrame	OrigNumFrames
100	100	24	14	m	100	363	724
Frame#	Time	C7			T8			IJ			PX			AA			AC			AI			TS			SC			GH			LE			ME			US			RS			
		X1	Y1	Z1	X2	Y2	Z2	X3	Y3	Z3	X4	Y4	Z4	X5	Y5	Z5	X6	Y6	Z6	X7	Y7	Z7	X8	Y8	Z8	X9	Y9	Z9	X10	Y10	Z10	X11	Y11	Z11	X12	Y12	Z12	X13	Y13	Z13	X14	Y14	Z14	
363	3.6300	-0.021137	0.112129	0.139909	0.009684	-0.100082	0.224143	-0.025756	-0.006646	-0.017732	-0.004584	-0.150888	-0.077116	0.167193	0.084171	0.130467	0.120146	0.096959	0.047115	0.064014	0.062482	0.181461	0.087817	-0.060521	0.212164	-0.002537	0.005575	-0.014367	0.173915	0.097248	0.087730	0.402727	-0.055932	0.121109	0.380123	-0.084395	0.208062	0.504044	-0.324964	0.125157	0.425689	-0.340717	0.137660	
364	3.6400	-0.021461	0.112122	0.140206	0.009545	-0.100130	0.224264	-0.026106	-0.006551	-0.017408	-0.004756	-0.150785	-0.076977	0.166967	0.084338	0.130680	0.119620	0.097180	0.047530	0.063737	0.062496	0.181750	0.087690	-0.060518	0.212267	-0.002896	0.005855	-0.014006	0.173430	0.097562	0.088027	0.403102	-0.054606	0.119421	0.380953	-0.084405	0.206096	0.504911	-0.323400	0.118992	0.426571	-0.339445	0.131550	
365	3.6500	-0.021809	0.112137	0.140511	0.009410	-0.100170	0.224382	-0.026370	-0.006438	-0.017099	-0.004924	-0.150687	-0.076808	0.166665	0.084469	0.130921	0.119059	0.097414	0.047981	0.063444	0.062530	0.182081	0.087548	-0.060510	0.212383	-0.003185	0.006155	-0.013647	0.172931	0.097906	0.088355	0.403478	-0.053154	0.117757	0.381754	-0.084350	0.204168	0.505858	-0.321595	0.112510	0.427537	-0.338002	0.125149	
366	3.6600	-0.022175	0.112164	0.140804	0.009273	-0.100204	0.224499	-0.026532	-0.006316	-0.016897	-0.005073	-0.150591	-0.076623	0.166284	0.084570	0.131229	0.118482	0.097672	0.048457	0.063152	0.062579	0.182440	0.087397	-0.060498	0.212510	-0.003353	0.006348	-0.013420	0.172433	0.098269	0.088710	0.403855	-0.051586	0.116099	0.382540	-0.084249	0.202218	0.506871	-0.319563	0.105819	0.428584	-0.336387	0.118429	
367	3.6700	-0.022540	0.112182	0.141078	0.009129	-0.100237	0.224620	-0.026600	-0.006171	-0.016853	-0.005200	-0.150498	-0.076442	0.165821	0.084655	0.131626	0.117948	0.097993	0.048931	0.062836	0.062635	0.182819	0.087243	-0.060485	0.212642	-0.003460	0.006428	-0.013340	0.171934	0.098639	0.089110	0.404237	-0.049919	0.114422	0.383327	-0.084124	0.200202	0.507931	-0.317331	0.099047	0.429704	-0.334586	0.111368	
368	3.6800	-0.022887	0.112181	0.141343	0.008969	-0.100270	0.224746	-0.026602	-0.006005	-0.016913	-0.005307	-0.150410	-0.076279	0.165334	0.084769	0.132104	0.117488	0.098404	0.049401	0.062482	0.062675	0.183202	0.087083	-0.060486	0.212780	-0.003554	0.006462	-0.013327	0.171415	0.099000	0.089582	0.404624	-0.048170	0.112722	0.384159	-0.083980	0.198114	0.509046	-0.314919	0.092271	0.430875	-0.332568	0.103972	
369	3.6900	-0.023222	0.112164	0.141606	0.008785	-0.100308	0.224879	-0.026571	-0.005832	-0.016968	-0.005390	-0.150323	-0.076146	0.164915	0.084942	0.132623	0.117066	0.098904	0.049894	0.062095	0.062665	0.183594	0.086907	-0.060513	0.212929	-0.003638	0.006517	-0.013263	0.170865	0.099335	0.090128	0.405008	-0.046350	0.111024	0.385076	-0.083797	0.195982	0.510226	-0.312323	0.085483	0.432066	-0.330295	0.096277	
370	3.7000	-0.023561	0.112148	0.141879	0.008571	-0.100349	0.225018	-0.026532	-0.005662	-0.016942	-0.005441	-0.150229	-0.076037	0.164569	0.085097	0.133126	0.116626	0.099435	0.050433	0.061697	0.062603	0.184023	0.086700	-0.060565	0.213095	-0.003701	0.006610	-0.013118	0.170294	0.099636	0.090717	0.405378	-0.044461	0.109380	0.386071	-0.083554	0.193846	0.511448	-0.309502	0.078601	0.433246	-0.327732	0.088329	
371	3.7100	-0.023917	0.112147	0.142177	0.008325	-0.100392	0.225163	-0.026511	-0.005499	-0.016825	-0.005459	-0.150107	-0.075926	0.164228	0.085145	0.133616	0.116134	0.099891	0.051029	0.061300	0.062519	0.184486	0.086446	-0.060633	0.213284	-0.003759	0.006734	-0.012933	0.169710	0.099919	0.091315	0.405726	-0.042498	0.107852	0.387085	-0.083271	0.191725	0.512698	-0.306393	0.071498	0.434411	-0.324854	0.080157	
372	3.7200	-0.024280	0.112151	0.142494	0.008048	-0.100435	0.225310	-0.026527	-0.005349	-0.016641	-0.005449	-0.149958	-0.075794	0.163823	0.085113	0.134124	0.115582	0.100217	0.051683	0.060907	0.062452	0.184940	0.086142	-0.060700	0.213495	-0.003844	0.006885	-0.012747	0.169118	0.100210	0.091911	0.406052	-0.040459	0.106504	0.388017	-0.083028	0.189608	0.513958	-0.302928	0.064045	0.435573	-0.321654	0.071800	
373	3.7300	-0.024625	0.112145	0.142803	0.007749	-0.100476	0.225457	-0.026589	-0.005224	-0.016422	-0.005414	-0.149809	-0.075634	0.163342	0.085074	0.134645	0.115002	0.100444	0.052360	0.060519	0.062399	0.185342	0.085799	-0.060757	0.213721	-0.003955	0.007038	-0.012577	0.168519	0.100525	0.092513	0.406371	-0.038340	0.105367	0.388780	-0.082921	0.187479	0.515198	-0.299060	0.056175	0.436742	-0.318142	0.063309	
374	3.7400	-0.024931	0.112144	0.143069	0.007438	-0.100517	0.225600	-0.026681	-0.005135	-0.016193	-0.005371	-0.149698	-0.075463	0.162845	0.085092	0.135169	0.114460	0.100643	0.053009	0.060137	0.062358	0.185696	0.085443	-0.060808	0.213955	-0.004056	0.007154	-0.012431	0.167923	0.100854	0.093143	0.406705	-0.036122	0.104424	0.389396	-0.082949	0.185316	0.516396	-0.294792	0.047954	0.437913	-0.314326	0.054715	
375	3.7500	-0.025199	0.112160	0.143281	0.007125	-0.100562	0.225736	-0.026775	-0.005070	-0.015982	-0.005340	-0.149633	-0.075305	0.162387	0.085175	0.135728	0.113993	0.100838	0.053638	0.059754	0.062326	0.186060	0.085101	-0.060862	0.214193	-0.004119	0.007210	-0.012311	0.167348	0.101169	0.093827	0.407077	-0.033784	0.103608	0.389985	-0.083003	0.183099	0.517558	-0.290196	0.039595	0.439076	-0.310199	0.045987	
376	3.7600	-0.025466	0.112182	0.143467	0.006819	-0.100616	0.225865	-0.026853	-0.004988	-0.015820	-0.005316	-0.149581	-0.075180	0.161932	0.085258	0.136388	0.113577	0.101004	0.054317	0.059352	0.062295	0.186491	0.084788	-0.060927	0.214437	-0.004137	0.007239	-0.012212	0.166806	0.101441	0.094587	0.407492	-0.031324	0.102829	0.390685	-0.082953	0.180826	0.518690	-0.285392	0.031326	0.440215	-0.305733	0.037070	
377	3.7700	-0.025782	0.112191	0.143676	0.006521	-0.100683	0.225988	-0.026913	-0.004853	-0.015724	-0.005291	-0.149496	-0.075087	0.161434	0.085248	0.137155	0.113169	0.101117	0.055106	0.058915	0.062246	0.187035	0.084500	-0.061013	0.214697	-0.004153	0.007313	-0.012102	0.166288	0.101662	0.095436	0.407939	-0.028763	0.102002	0.391584	-0.082727	0.178518	0.519785	-0.280455	0.023283	0.441315	-0.300892	0.027940	
378	3.7800	-0.026163	0.112165	0.143948	0.006227	-0.100764	0.226109	-0.026957	-0.004672	-0.015654	-0.005253	-0.149354	-0.075007	0.160955	0.085128	0.137963	0.112744	0.101213	0.055994	0.058461	0.062167	0.187665	0.084216	-0.061124	0.214984	-0.004214	0.007458	-0.011927	0.165774	0.101837	0.096352	0.408391	-0.026139	0.101088	0.392685	-0.082320	0.176197	0.520846	-0.275352	0.015453	0.442370	-0.295646	0.018649	
379	3.7900	-0.026569	0.112111	0.144275	0.005930	-0.100857	0.226231	-0.026983	-0.004497	-0.015529	-0.005185	-0.149155	-0.074919	0.160570	0.084969	0.138774	0.112305	0.101358	0.056904	0.058004	0.062049	0.188279	0.083905	-0.061261	0.215303	-0.004323	0.007642	-0.011629	0.165247	0.101980	0.097288	0.408817	-0.023485	0.100113	0.393913	-0.081779	0.173900	0.521867	-0.269960	0.007689	0.443373	-0.289989	0.009321	
380	3.8000	-0.026944	0.112047	0.144619	0.005620	-0.100960	0.226358	-0.026988	-0.004368	-0.015306	-0.005085	-0.148926	-0.074806	0.160220	0.084774	0.139583	0.111874	0.101572	0.057757	0.057557	0.061899	0.188811	0.083547	-0.061421	0.215650	-0.004459	0.007865	-0.011199	0.164706	0.102111	0.098187	0.409196	-0.020819	0.099158	0.395154	-0.081172	0.171671	0.522835	-0.264134	-0.000195	0.444321	-0.283937	0.000111	
381	3.8100	-0.027253	0.111997	0.144937	0.005290	-0.101066	0.226491	-0.026987	-0.004271	-0.015035	-0.004972	-0.148708	-0.074666	0.159815	0.084530	0.140365	0.111474	0.101811	0.058524	0.057151	0.061742	0.189295	0.083147	-0.061600	0.216011	-0.004571	0.008124	-0.010742	0.164160	0.102240	0.099029	0.409517	-0.018145	0.098324	0.396306	-0.080556	0.169513	0.523730	-0.257764	-0.008312	0.445219	-0.277511	-0.008892	
382	3.8200	-0.027490	0.111975	0.145210	0.004937	-0.101174	0.226626	-0.027010	-0.004148	-0.014824	-0.004869	-0.148534	-0.074511	0.159372	0.084291	0.141067	0.111120	0.101987	0.059243	0.056806	0.061581	0.189769	0.082734	-0.061797	0.216367	-0.004586	0.008348	-0.010444	0.163614	0.102361	0.099834	0.409800	-0.015446	0.097686	0.397320	-0.079945	0.167358	0.524551	-0.250814	-0.016638	0.446076	-0.270729	-0.017701	
383	3.8300	-0.027658	0.111974	0.145435	0.004563	-0.101281	0.226760	-0.027064	-0.003966	-0.014744	-0.004788	-0.148408	-0.074355	0.158937	0.084083	0.141699	0.110808	0.102030	0.059974	0.056522	0.061417	0.190223	0.082345	-0.062012	0.216704	-0.004492	0.008473	-0.010372	0.163079	0.102459	0.100637	0.410082	-0.012688	0.097259	0.398229	-0.079296	0.165109	0.525303	-0.243367	-0.025016	0.446896	-0.263602	-0.026402	
384	3.8400	-0.027771	0.111976	0.145620	0.004176	-0.101388	0.226887	-0.027111	-0.003754	-0.014769	-0.004722	-0.148308	-0.074208	0.158531	0.083881	0.142374	0.110525	0.101964	0.060752	0.056269	0.061256	0.190681	0.081999	-0.062253	0.217019	-0.004345	0.008522	-0.010421	0.162574	0.102519	0.101462	0.410397	-0.009829	0.096982	0.399157	-0.078543	0.162734	0.525995	-0.235592	-0.033243	0.447674	-0.256130	-0.035086	
385	3.8500	-0.027858	0.111959	0.145785	0.003787	-0.101499	0.227006	-0.027101	-0.003563	-0.014808	-0.004652	-0.148202	-0.074083	0.158185	0.083667	0.143158	0.110263	0.101865	0.061581	0.056009	0.061087	0.191183	0.081693	-0.062526	0.217317	-0.004226	0.008573	-0.010415	0.162115	0.102540	0.102313	0.410761	-0.006852	0.096749	0.400249	-0.077637	0.160296	0.526645	-0.227626	-0.041191	0.448394	-0.248304	-0.043778	
386	3.8600	-0.027946	0.111916	0.145963	0.003408	-0.101615	0.227114	-0.027003	-0.003420	-0.014794	-0.004561	-0.148068	-0.073986	0.157931	0.083406	0.143994	0.110025	0.101810	0.062444	0.055738	0.060866	0.191736	0.081407	-0.062831	0.217608	-0.004137	0.008669	-0.010294	0.161698	0.102539	0.103191	0.411166	-0.003783	0.096479	0.401560	-0.076569	0.157891	0.527271	-0.219503	-0.048844	0.449040	-0.240118	-0.052394	
